<?xml version="1.0" encoding="UTF-8"?>
<level>
  <owner>stolbitsa</owner>
  <repo>master-and-servant-octaves</repo>
  <version>v1.0.1</version>
  <next number="1" owner="stolbitsa" repo="tonic-harmonic"/>
  <readme>
    <en>48f5c2e95e69d77fc7f61a37d503ea4cf3dae0f4f3449a33af72e51d5ad4e5bb</en>
    <ru>b6a5c059be7bc5dd5c910aaf17b56748ec40e08abdc4297e12037790a429500f</ru>
  </readme>
  <license>b1b99f5538d1fd3702219bff50c665196dfa42f6ee755c37fe41a6178d6bc6e5</license>
  <exercise number="1">
    <scale>minor</scale>
    <bpm>126</bpm>
    <lowestNote>1</lowestNote>
    <tonalities>1,2,3,4,5,6,7,8,9,10,11,12</tonalities>
    <notes>
      <note number="1" values="18" ticks="96" durationTicks="94" ppq="192" velocity="0.704"/>
      <note number="2" values="18" ticks="195" durationTicks="87" ppq="192" velocity="0.689"/>
      <note number="3" values="18" ticks="288" durationTicks="191" ppq="192" velocity="0.754"/>
      <note number="4" values="1" ticks="480" durationTicks="95" ppq="192" velocity="0.714"/>
      <note number="5" values="1" ticks="578" durationTicks="93" ppq="192" velocity="0.671"/>
      <note number="6" values="1" ticks="672" durationTicks="191" ppq="192" velocity="0.754"/>
    </notes>
  </exercise>
  <exercise number="2">
    <scale>minor</scale>
    <bpm>126</bpm>
    <lowestNote>1</lowestNote>
    <tonalities>1</tonalities>
    <notes>
      <note number="1" values="18" ticks="337" durationTicks="94" ppq="192" velocity="0.296"/>
      <note number="2" values="18" ticks="433" durationTicks="87" ppq="192" velocity="0.274"/>
      <note number="3" values="18" ticks="530" durationTicks="94" ppq="192" velocity="0.269"/>
      <note number="4" values="1" ticks="719" durationTicks="95" ppq="192" velocity="0.326"/>
      <note number="5" values="1" ticks="817" durationTicks="93" ppq="192" velocity="0.316"/>
      <note number="6" values="1" ticks="915" durationTicks="191" ppq="192" velocity="0.294"/>
    </notes>
  </exercise>
  <exercise number="3">
    <scale>minor</scale>
    <bpm>126</bpm>
    <lowestNote>1</lowestNote>
    <tonalities>1,2,3,4,5,6,7,8,9,10,11,12</tonalities>
    <notes>
      <note number="1" values="1,18" ticks="96" durationTicks="94" ppq="192" velocity="0.704"/>
      <note number="2" values="1,18" ticks="195" durationTicks="87" ppq="192" velocity="0.689"/>
      <note number="3" values="1,18" ticks="288" durationTicks="191" ppq="192" velocity="0.754"/>
      <note number="4" values="1,18" ticks="480" durationTicks="95" ppq="192" velocity="0.714"/>
      <note number="5" values="1,18" ticks="578" durationTicks="93" ppq="192" velocity="0.671"/>
      <note number="6" values="1,18" ticks="672" durationTicks="191" ppq="192" velocity="0.754"/>
    </notes>
  </exercise>
  <exercise number="4">
    <scale>minor</scale>
    <bpm>126</bpm>
    <lowestNote>1</lowestNote>
    <tonalities>1</tonalities>
    <notes>
      <note number="1" values="18" ticks="96" durationTicks="94" ppq="192" velocity="0.311"/>
      <note number="2" values="18" ticks="191" durationTicks="87" ppq="192" velocity="0.309"/>
      <note number="3" values="18" ticks="287" durationTicks="191" ppq="192" velocity="0.309"/>
      <note number="4" values="1" ticks="479" durationTicks="95" ppq="192" velocity="0.316"/>
      <note number="5" values="1" ticks="577" durationTicks="93" ppq="192" velocity="0.309"/>
      <note number="6" values="1" ticks="671" durationTicks="191" ppq="192" velocity="0.326"/>
    </notes>
  </exercise>
  <exercise number="5">
    <scale>minor</scale>
    <bpm>126</bpm>
    <lowestNote>1</lowestNote>
    <tonalities>1,2,3,4,5,6,7,8,9,10,11,12</tonalities>
    <notes>
      <note number="1" values="1,18" ticks="96" durationTicks="94" ppq="192" velocity="0.704"/>
      <note number="2" values="1,18" ticks="195" durationTicks="87" ppq="192" velocity="0.689"/>
      <note number="3" values="1,18" ticks="288" durationTicks="191" ppq="192" velocity="0.754"/>
      <note number="4" values="1,18" ticks="480" durationTicks="95" ppq="192" velocity="0.714"/>
      <note number="5" values="1,18" ticks="578" durationTicks="93" ppq="192" velocity="0.671"/>
      <note number="6" values="1,18" ticks="672" durationTicks="191" ppq="192" velocity="0.754"/>
    </notes>
  </exercise>
  <exercise number="6">
    <scale>minor</scale>
    <bpm>126</bpm>
    <lowestNote>1</lowestNote>
    <tonalities>1</tonalities>
    <notes>
      <note number="1" values="18" ticks="48" durationTicks="90" ppq="192" velocity="0.319"/>
      <note number="2" values="18" ticks="146" durationTicks="87" ppq="192" velocity="0.299"/>
      <note number="3" values="18" ticks="240" durationTicks="192" ppq="192" velocity="0.316"/>
      <note number="4" values="1" ticks="433" durationTicks="96" ppq="192" velocity="0.299"/>
      <note number="5" values="1" ticks="530" durationTicks="93" ppq="192" velocity="0.316"/>
      <note number="6" values="1" ticks="627" durationTicks="188" ppq="192" velocity="0.299"/>
    </notes>
  </exercise>
  <exercise number="7">
    <scale>minor</scale>
    <bpm>126</bpm>
    <lowestNote>1</lowestNote>
    <tonalities>1,2,3,4,5,6,7,8,9,10,11,12</tonalities>
    <notes>
      <note number="1" values="1,18" ticks="96" durationTicks="94" ppq="192" velocity="0.704"/>
      <note number="2" values="1,18" ticks="195" durationTicks="87" ppq="192" velocity="0.689"/>
      <note number="3" values="1,18" ticks="288" durationTicks="191" ppq="192" velocity="0.754"/>
      <note number="4" values="1,18" ticks="480" durationTicks="95" ppq="192" velocity="0.714"/>
      <note number="5" values="1,18" ticks="578" durationTicks="93" ppq="192" velocity="0.671"/>
      <note number="6" values="1,18" ticks="672" durationTicks="191" ppq="192" velocity="0.754"/>
    </notes>
  </exercise>
  <exercise number="8">
    <scale>minor</scale>
    <bpm>126</bpm>
    <lowestNote>1</lowestNote>
    <tonalities>1</tonalities>
    <notes>
      <note number="1" values="18" ticks="48" durationTicks="94" ppq="192" velocity="0.316"/>
      <note number="2" values="18" ticks="142" durationTicks="87" ppq="192" velocity="0.314"/>
      <note number="3" values="18" ticks="240" durationTicks="191" ppq="192" velocity="0.306"/>
      <note number="4" values="1" ticks="432" durationTicks="194" ppq="192" velocity="0.306"/>
      <note number="5" values="1" ticks="625" durationTicks="189" ppq="192" velocity="0.301"/>
    </notes>
  </exercise>
  <exercise number="9">
    <scale>minor</scale>
    <bpm>126</bpm>
    <lowestNote>1</lowestNote>
    <tonalities>1</tonalities>
    <notes>
      <note number="1" values="18" ticks="48" durationTicks="94" ppq="192" velocity="0.699"/>
      <note number="2" values="18" ticks="142" durationTicks="87" ppq="192" velocity="0.669"/>
      <note number="3" values="18" ticks="240" durationTicks="191" ppq="192" velocity="0.757"/>
      <note number="4" values="1" ticks="432" durationTicks="194" ppq="192" velocity="0.842"/>
      <note number="5" values="1" ticks="625" durationTicks="189" ppq="192" velocity="0.779"/>
    </notes>
  </exercise>
</level>
